ffmpeg started on 2026-01-14 at 14:24:47
Report written to "D:\Convert\FFMetrics\reports\ssim_report-6.txt"
Log level: 32
Command line:
ffmpeg -hide_banner -nostdin -r 24000/1001 -i "F:\\Convert\\files\\[DC] Make Heroine ga Oosugiru - 07_Telegram_HEVC(136).mkv" -r 24000/1001 -i "F:\\Convert\\files\\[DC] Make Heroine ga Oosugiru - 07_Telegram.mp4" -lavfi "[0:v]settb=AVTB,setpts=PTS-STARTPTS,format=pix_fmts=yuv420p10le,fps=24000/1001,scale=1920:1080:flags=lanczos:param0=3:out_range=limited:out_color_matrix=bt709:out_chroma_loc=left,setsar=1/1,setdar=(1920/1080)*(1/1),colorspace=format=yuv420p10:range=tv:primaries=bt709:trc=bt709:space=bt709:fast=0[main];[1:v]settb=AVTB,setpts=PTS-STARTPTS,format=pix_fmts=yuv420p,fps=24000/1001,scale=1920:1080:flags=lanczos:param0=3:out_range=limited:out_color_matrix=bt709:out_chroma_loc=left,setsar=1.000,setdar=1.778,colorspace=format=yuv420p:range=tv:primaries=bt709:trc=bt709:space=bt709:fast=0[ref];[main][ref]ssim=eof_action=endall:stats_file='D\\:/Convert/FFMetrics/logs/ssim_logfile-6.txt'" -f null -
Input #0, matroska,webm, from 'F:\Convert\files\[DC] Make Heroine ga Oosugiru - 07_Telegram_HEVC(136).mkv':
  Metadata:
    COMPATIBLE_BRANDS: isomiso2avc1mp41
    MAJOR_BRAND     : isom
    MINOR_VERSION   : 512
    ENCODER         : Lavf61.7.100
  Duration: 00:24:06.79, start: -0.021000, bitrate: 981 kb/s
  Stream #0:0: Video: hevc (Main 10), yuv420p10le(tv, bt709, progressive), 1920x1080 [SAR 1:1 DAR 16:9], 23.98 fps, 23.98 tbr, 1k tbn (default)
      Metadata:
        HANDLER_NAME    : VideoHandler
        VENDOR_ID       : [0][0][0][0]
        ENCODER         : Lavc61.19.100 libx265
        BPS             : 784036
        DURATION        : 00:24:06.569708333
        NUMBER_OF_FRAMES: 34683
        NUMBER_OF_BYTES : 141770323
        _STATISTICS_WRITING_APP: mkvpropedit v94.0 ('Initiate') 64-bit
        _STATISTICS_WRITING_DATE_UTC: 2026-01-14 10:28:21
        _STATISTICS_TAGS: BPS DURATION NUMBER_OF_FRAMES NUMBER_OF_BYTES
  Stream #0:1: Audio: aac (LC), 48000 Hz, stereo, fltp (default)
      Metadata:
        HANDLER_NAME    : SoundHandler
        VENDOR_ID       : [0][0][0][0]
        ENCODER         : Lavc61.19.100 aac
        BPS             : 193194
        DURATION        : 00:24:06.784000000
        NUMBER_OF_FRAMES: 67819
        NUMBER_OF_BYTES : 34938755
        _STATISTICS_WRITING_APP: mkvpropedit v94.0 ('Initiate') 64-bit
        _STATISTICS_WRITING_DATE_UTC: 2026-01-14 10:28:21
        _STATISTICS_TAGS: BPS DURATION NUMBER_OF_FRAMES NUMBER_OF_BYTES
Input #1, mov,mp4,m4a,3gp,3g2,mj2, from 'F:\Convert\files\[DC] Make Heroine ga Oosugiru - 07_Telegram.mp4':
  Metadata:
    major_brand     : isom
    minor_version   : 512
    compatible_brands: isomiso2avc1mp41
    encoder         : Lavf60.16.100
  Duration: 00:24:06.74, start: 0.000000, bitrate: 3764 kb/s
  Stream #1:0[0x1](und): Video: h264 (High) (avc1 / 0x31637661), yuv420p(tv, bt709, progressive), 1920x1080 [SAR 1:1 DAR 16:9], 3616 kb/s, 23.98 fps, 23.98 tbr, 24k tbn (default)
      Metadata:
        handler_name    : VideoHandler
        vendor_id       : [0][0][0][0]
        encoder         : Lavc60.31.102 h264_qsv
  Stream #1:1[0x2](und): Audio: aac (HE-AACv2) (mp4a / 0x6134706D), 48000 Hz, stereo, fltp, 144 kb/s (default)
      Metadata:
        handler_name    : SoundHandler
        vendor_id       : [0][0][0][0]
Stream mapping:
  Stream #0:0 (hevc) -> settb:default
  Stream #1:0 (h264) -> settb:default
  ssim:default -> Stream #0:0 (wrapped_avframe)
  Stream #0:1 -> #0:1 (aac (native) -> pcm_s16le (native))
Output #0, null, to 'pipe:':
  Metadata:
    COMPATIBLE_BRANDS: isomiso2avc1mp41
    MAJOR_BRAND     : isom
    MINOR_VERSION   : 512
    encoder         : Lavf61.7.100
  Stream #0:0: Video: wrapped_avframe, yuv420p10le(tv, bt709, progressive), 1920x1080 [SAR 1:1 DAR 16:9], q=2-31, 200 kb/s, 23.98 fps, 23.98 tbn
      Metadata:
        encoder         : Lavc61.19.100 wrapped_avframe
  Stream #0:1: Audio: pcm_s16le, 48000 Hz, stereo, s16, 1536 kb/s (default)
      Metadata:
        HANDLER_NAME    : SoundHandler
        VENDOR_ID       : [0][0][0][0]
        _STATISTICS_TAGS: BPS DURATION NUMBER_OF_FRAMES NUMBER_OF_BYTES
        BPS             : 193194
        DURATION        : 00:24:06.784000000
        NUMBER_OF_FRAMES: 67819
        NUMBER_OF_BYTES : 34938755
        _STATISTICS_WRITING_APP: mkvpropedit v94.0 ('Initiate') 64-bit
        _STATISTICS_WRITING_DATE_UTC: 2026-01-14 10:28:21
        encoder         : Lavc61.19.100 pcm_s16le
frame=  126 fps=0.0 q=-0.0 size=N/A time=00:00:05.25 bitrate=N/A speed=10.3x    frame=  310 fps=300 q=-0.0 size=N/A time=00:00:12.92 bitrate=N/A speed=12.5x    frame=  489 fps=317 q=-0.0 size=N/A time=00:00:20.39 bitrate=N/A speed=13.2x    frame=  678 fps=327 q=-0.0 size=N/A time=00:00:28.27 bitrate=N/A speed=13.7x    frame=  853 fps=330 q=-0.0 size=N/A time=00:00:35.57 bitrate=N/A speed=13.8x    frame=  990 fps=320 q=-0.0 size=N/A time=00:00:41.29 bitrate=N/A speed=13.4x    frame= 1152 fps=318 q=-0.0 size=N/A time=00:00:48.04 bitrate=N/A speed=13.3x    frame= 1310 fps=317 q=-0.0 size=N/A time=00:00:54.63 bitrate=N/A speed=13.2x    frame= 1471 fps=317 q=-0.0 size=N/A time=00:01:01.35 bitrate=N/A speed=13.2x    frame= 1610 fps=312 q=-0.0 size=N/A time=00:01:07.15 bitrate=N/A speed=  13x    frame= 1760 fps=310 q=-0.0 size=N/A time=00:01:13.40 bitrate=N/A speed=12.9x    frame= 1921 fps=310 q=-0.0 size=N/A time=00:01:20.12 bitrate=N/A speed=12.9x    frame= 2060 fps=307 q=-0.0 size=N/A time=00:01:25.91 bitrate=N/A speed=12.8x    frame= 2188 fps=303 q=-0.0 size=N/A time=00:01:31.25 bitrate=N/A speed=12.6x    frame= 2345 fps=303 q=-0.0 size=N/A time=00:01:37.80 bitrate=N/A speed=12.6x    frame= 2477 fps=300 q=-0.0 size=N/A time=00:01:43.31 bitrate=N/A speed=12.5x    frame= 2618 fps=299 q=-0.0 size=N/A time=00:01:49.19 bitrate=N/A speed=12.5x    frame= 2791 fps=300 q=-0.0 size=N/A time=00:01:56.40 bitrate=N/A speed=12.5x    frame= 2969 fps=302 q=-0.0 size=N/A time=00:02:03.83 bitrate=N/A speed=12.6x    frame= 3141 fps=304 q=-0.0 size=N/A time=00:02:11.00 bitrate=N/A speed=12.7x    frame= 3325 fps=306 q=-0.0 size=N/A time=00:02:18.68 bitrate=N/A speed=12.8x    frame= 3513 fps=309 q=-0.0 size=N/A time=00:02:26.52 bitrate=N/A speed=12.9x    frame= 3689 fps=310 q=-0.0 size=N/A time=00:02:33.86 bitrate=N/A speed=12.9x    frame= 3873 fps=312 q=-0.0 size=N/A time=00:02:41.53 bitrate=N/A speed=  13x    frame= 4052 fps=314 q=-0.0 size=N/A time=00:02:49.00 bitrate=N/A speed=13.1x    frame= 4235 fps=315 q=-0.0 size=N/A time=00:02:56.63 bitrate=N/A speed=13.1x    frame= 4415 fps=316 q=-0.0 size=N/A time=00:03:04.14 bitrate=N/A speed=13.2x    frame= 4594 fps=317 q=-0.0 size=N/A time=00:03:11.60 bitrate=N/A speed=13.2x    frame= 4770 fps=318 q=-0.0 size=N/A time=00:03:18.94 bitrate=N/A speed=13.3x    frame= 4959 fps=320 q=-0.0 size=N/A time=00:03:26.83 bitrate=N/A speed=13.3x    frame= 5136 fps=321 q=-0.0 size=N/A time=00:03:34.21 bitrate=N/A speed=13.4x    frame= 5318 fps=322 q=-0.0 size=N/A time=00:03:41.80 bitrate=N/A speed=13.4x    frame= 5499 fps=322 q=-0.0 size=N/A time=00:03:49.35 bitrate=N/A speed=13.4x    frame= 5682 fps=323 q=-0.0 size=N/A time=00:03:56.98 bitrate=N/A speed=13.5x    frame= 5859 fps=324 q=-0.0 size=N/A time=00:04:04.36 bitrate=N/A speed=13.5x    frame= 6034 fps=324 q=-0.0 size=N/A time=00:04:11.66 bitrate=N/A speed=13.5x    frame= 6217 fps=325 q=-0.0 size=N/A time=00:04:19.30 bitrate=N/A speed=13.6x    frame= 6397 fps=326 q=-0.0 size=N/A time=00:04:26.80 bitrate=N/A speed=13.6x    frame= 6585 fps=327 q=-0.0 size=N/A time=00:04:34.64 bitrate=N/A speed=13.6x    frame= 6763 fps=327 q=-0.0 size=N/A time=00:04:42.07 bitrate=N/A speed=13.7x    frame= 6942 fps=328 q=-0.0 size=N/A time=00:04:49.53 bitrate=N/A speed=13.7x    frame= 7121 fps=328 q=-0.0 size=N/A time=00:04:57.00 bitrate=N/A speed=13.7x    frame= 7298 fps=329 q=-0.0 size=N/A time=00:05:04.38 bitrate=N/A speed=13.7x    frame= 7477 fps=329 q=-0.0 size=N/A time=00:05:11.85 bitrate=N/A speed=13.7x    frame= 7646 fps=329 q=-0.0 size=N/A time=00:05:18.90 bitrate=N/A speed=13.7x    frame= 7831 fps=330 q=-0.0 size=N/A time=00:05:26.61 bitrate=N/A speed=13.7x    frame= 8002 fps=330 q=-0.0 size=N/A time=00:05:33.75 bitrate=N/A speed=13.8x    frame= 8179 fps=330 q=-0.0 size=N/A time=00:05:41.13 bitrate=N/A speed=13.8x    frame= 8361 fps=330 q=-0.0 size=N/A time=00:05:48.72 bitrate=N/A speed=13.8x    frame= 8541 fps=331 q=-0.0 size=N/A time=00:05:56.23 bitrate=N/A speed=13.8x    frame= 8714 fps=331 q=-0.0 size=N/A time=00:06:03.44 bitrate=N/A speed=13.8x    frame= 8894 fps=331 q=-0.0 size=N/A time=00:06:10.95 bitrate=N/A speed=13.8x    frame= 9073 fps=332 q=-0.0 size=N/A time=00:06:18.41 bitrate=N/A speed=13.8x    frame= 9246 fps=332 q=-0.0 size=N/A time=00:06:25.63 bitrate=N/A speed=13.8x    frame= 9418 fps=332 q=-0.0 size=N/A time=00:06:32.80 bitrate=N/A speed=13.8x    frame= 9606 fps=332 q=-0.0 size=N/A time=00:06:40.65 bitrate=N/A speed=13.9x    frame= 9789 fps=332 q=-0.0 size=N/A time=00:06:48.28 bitrate=N/A speed=13.9x    frame= 9967 fps=333 q=-0.0 size=N/A time=00:06:55.70 bitrate=N/A speed=13.9x    frame=10143 fps=333 q=-0.0 size=N/A time=00:07:03.04 bitrate=N/A speed=13.9x    frame=10314 fps=333 q=-0.0 size=N/A time=00:07:10.17 bitrate=N/A speed=13.9x    frame=10500 fps=333 q=-0.0 size=N/A time=00:07:17.93 bitrate=N/A speed=13.9x    frame=10675 fps=333 q=-0.0 size=N/A time=00:07:25.23 bitrate=N/A speed=13.9x    frame=10852 fps=334 q=-0.0 size=N/A time=00:07:32.61 bitrate=N/A speed=13.9x    frame=11029 fps=334 q=-0.0 size=N/A time=00:07:40.00 bitrate=N/A speed=13.9x    frame=11204 fps=334 q=-0.0 size=N/A time=00:07:47.30 bitrate=N/A speed=13.9x    frame=11379 fps=334 q=-0.0 size=N/A time=00:07:54.59 bitrate=N/A speed=13.9x    frame=11560 fps=334 q=-0.0 size=N/A time=00:08:02.14 bitrate=N/A speed=13.9x    frame=11736 fps=334 q=-0.0 size=N/A time=00:08:09.48 bitrate=N/A speed=13.9x    frame=11920 fps=334 q=-0.0 size=N/A time=00:08:17.16 bitrate=N/A speed=13.9x    frame=12102 fps=335 q=-0.0 size=N/A time=00:08:24.75 bitrate=N/A speed=  14x    frame=12280 fps=335 q=-0.0 size=N/A time=00:08:32.17 bitrate=N/A speed=  14x    frame=12457 fps=335 q=-0.0 size=N/A time=00:08:39.56 bitrate=N/A speed=  14x    frame=12641 fps=335 q=-0.0 size=N/A time=00:08:47.23 bitrate=N/A speed=  14x    frame=12819 fps=335 q=-0.0 size=N/A time=00:08:54.65 bitrate=N/A speed=  14x    frame=12994 fps=335 q=-0.0 size=N/A time=00:09:01.95 bitrate=N/A speed=  14x    frame=13171 fps=335 q=-0.0 size=N/A time=00:09:09.34 bitrate=N/A speed=  14x    frame=13352 fps=336 q=-0.0 size=N/A time=00:09:16.88 bitrate=N/A speed=  14x    frame=13524 fps=336 q=-0.0 size=N/A time=00:09:24.06 bitrate=N/A speed=  14x    frame=13711 fps=336 q=-0.0 size=N/A time=00:09:31.86 bitrate=N/A speed=  14x    frame=13880 fps=336 q=-0.0 size=N/A time=00:09:38.91 bitrate=N/A speed=  14x    frame=14066 fps=336 q=-0.0 size=N/A time=00:09:46.66 bitrate=N/A speed=  14x    frame=14229 fps=336 q=-0.0 size=N/A time=00:09:53.46 bitrate=N/A speed=  14x    frame=14408 fps=336 q=-0.0 size=N/A time=00:10:00.93 bitrate=N/A speed=  14x    frame=14584 fps=336 q=-0.0 size=N/A time=00:10:08.27 bitrate=N/A speed=  14x    frame=14758 fps=336 q=-0.0 size=N/A time=00:10:15.53 bitrate=N/A speed=  14x    frame=14943 fps=336 q=-0.0 size=N/A time=00:10:23.24 bitrate=N/A speed=  14x    frame=15108 fps=336 q=-0.0 size=N/A time=00:10:30.12 bitrate=N/A speed=  14x    frame=15270 fps=336 q=-0.0 size=N/A time=00:10:36.88 bitrate=N/A speed=  14x    frame=15445 fps=336 q=-0.0 size=N/A time=00:10:44.18 bitrate=N/A speed=  14x    frame=15628 fps=336 q=-0.0 size=N/A time=00:10:51.81 bitrate=N/A speed=  14x    frame=15802 fps=336 q=-0.0 size=N/A time=00:10:59.07 bitrate=N/A speed=  14x    frame=15987 fps=337 q=-0.0 size=N/A time=00:11:06.79 bitrate=N/A speed=  14x    frame=16165 fps=337 q=-0.0 size=N/A time=00:11:14.21 bitrate=N/A speed=  14x    frame=16346 fps=337 q=-0.0 size=N/A time=00:11:21.76 bitrate=N/A speed=  14x    frame=16521 fps=337 q=-0.0 size=N/A time=00:11:29.06 bitrate=N/A speed=  14x    frame=16698 fps=337 q=-0.0 size=N/A time=00:11:36.44 bitrate=N/A speed=14.1x    frame=16876 fps=337 q=-0.0 size=N/A time=00:11:43.86 bitrate=N/A speed=14.1x    frame=17058 fps=337 q=-0.0 size=N/A time=00:11:51.46 bitrate=N/A speed=14.1x    frame=17243 fps=337 q=-0.0 size=N/A time=00:11:59.17 bitrate=N/A speed=14.1x    frame=17419 fps=337 q=-0.0 size=N/A time=00:12:06.51 bitrate=N/A speed=14.1x    frame=17594 fps=337 q=-0.0 size=N/A time=00:12:13.81 bitrate=N/A speed=14.1x    frame=17745 fps=337 q=-0.0 size=N/A time=00:12:20.11 bitrate=N/A speed=14.1x    frame=17913 fps=337 q=-0.0 size=N/A time=00:12:27.12 bitrate=N/A speed=14.1x    frame=18082 fps=337 q=-0.0 size=N/A time=00:12:34.17 bitrate=N/A speed=  14x    frame=18251 fps=337 q=-0.0 size=N/A time=00:12:41.21 bitrate=N/A speed=  14x    frame=18431 fps=337 q=-0.0 size=N/A time=00:12:48.72 bitrate=N/A speed=  14x    frame=18608 fps=337 q=-0.0 size=N/A time=00:12:56.10 bitrate=N/A speed=14.1x    frame=18782 fps=337 q=-0.0 size=N/A time=00:13:03.36 bitrate=N/A speed=14.1x    frame=18964 fps=337 q=-0.0 size=N/A time=00:13:10.95 bitrate=N/A speed=14.1x    frame=19147 fps=337 q=-0.0 size=N/A time=00:13:18.58 bitrate=N/A speed=14.1x    frame=19331 fps=337 q=-0.0 size=N/A time=00:13:26.26 bitrate=N/A speed=14.1x    frame=19507 fps=337 q=-0.0 size=N/A time=00:13:33.60 bitrate=N/A speed=14.1x    frame=19689 fps=338 q=-0.0 size=N/A time=00:13:41.19 bitrate=N/A speed=14.1x    frame=19874 fps=338 q=-0.0 size=N/A time=00:13:48.91 bitrate=N/A speed=14.1x    frame=20051 fps=338 q=-0.0 size=N/A time=00:13:56.29 bitrate=N/A speed=14.1x    frame=20229 fps=338 q=-0.0 size=N/A time=00:14:03.71 bitrate=N/A speed=14.1x    frame=20414 fps=338 q=-0.0 size=N/A time=00:14:11.43 bitrate=N/A speed=14.1x    frame=20578 fps=338 q=-0.0 size=N/A time=00:14:18.27 bitrate=N/A speed=14.1x    frame=20747 fps=338 q=-0.0 size=N/A time=00:14:25.32 bitrate=N/A speed=14.1x    frame=20935 fps=338 q=-0.0 size=N/A time=00:14:33.16 bitrate=N/A speed=14.1x    frame=21108 fps=338 q=-0.0 size=N/A time=00:14:40.37 bitrate=N/A speed=14.1x    frame=21294 fps=338 q=-0.0 size=N/A time=00:14:48.13 bitrate=N/A speed=14.1x    frame=21473 fps=338 q=-0.0 size=N/A time=00:14:55.60 bitrate=N/A speed=14.1x    frame=21656 fps=338 q=-0.0 size=N/A time=00:15:03.23 bitrate=N/A speed=14.1x    frame=21839 fps=338 q=-0.0 size=N/A time=00:15:10.86 bitrate=N/A speed=14.1x    frame=22025 fps=339 q=-0.0 size=N/A time=00:15:18.62 bitrate=N/A speed=14.1x    frame=22193 fps=339 q=-0.0 size=N/A time=00:15:25.63 bitrate=N/A speed=14.1x    frame=22373 fps=339 q=-0.0 size=N/A time=00:15:33.14 bitrate=N/A speed=14.1x    frame=22551 fps=339 q=-0.0 size=N/A time=00:15:40.56 bitrate=N/A speed=14.1x    frame=22731 fps=339 q=-0.0 size=N/A time=00:15:48.07 bitrate=N/A speed=14.1x    frame=22910 fps=339 q=-0.0 size=N/A time=00:15:55.53 bitrate=N/A speed=14.1x    frame=23092 fps=339 q=-0.0 size=N/A time=00:16:03.12 bitrate=N/A speed=14.1x    frame=23269 fps=339 q=-0.0 size=N/A time=00:16:10.51 bitrate=N/A speed=14.1x    frame=23446 fps=339 q=-0.0 size=N/A time=00:16:17.89 bitrate=N/A speed=14.1x    frame=23625 fps=339 q=-0.0 size=N/A time=00:16:25.35 bitrate=N/A speed=14.1x    frame=23805 fps=339 q=-0.0 size=N/A time=00:16:32.86 bitrate=N/A speed=14.1x    frame=23984 fps=339 q=-0.0 size=N/A time=00:16:40.33 bitrate=N/A speed=14.1x    frame=24160 fps=339 q=-0.0 size=N/A time=00:16:47.67 bitrate=N/A speed=14.1x    frame=24341 fps=339 q=-0.0 size=N/A time=00:16:55.22 bitrate=N/A speed=14.2x    frame=24521 fps=339 q=-0.0 size=N/A time=00:17:02.73 bitrate=N/A speed=14.2x    frame=24705 fps=339 q=-0.0 size=N/A time=00:17:10.40 bitrate=N/A speed=14.2x    frame=24881 fps=340 q=-0.0 size=N/A time=00:17:17.74 bitrate=N/A speed=14.2x    frame=25059 fps=340 q=-0.0 size=N/A time=00:17:25.16 bitrate=N/A speed=14.2x    frame=25248 fps=340 q=-0.0 size=N/A time=00:17:33.05 bitrate=N/A speed=14.2x    frame=25426 fps=340 q=-0.0 size=N/A time=00:17:40.47 bitrate=N/A speed=14.2x    frame=25600 fps=340 q=-0.0 size=N/A time=00:17:47.73 bitrate=N/A speed=14.2x    frame=25781 fps=340 q=-0.0 size=N/A time=00:17:55.28 bitrate=N/A speed=14.2x    frame=25954 fps=340 q=-0.0 size=N/A time=00:18:02.49 bitrate=N/A speed=14.2x    frame=26131 fps=340 q=-0.0 size=N/A time=00:18:09.88 bitrate=N/A speed=14.2x    frame=26308 fps=340 q=-0.0 size=N/A time=00:18:17.26 bitrate=N/A speed=14.2x    frame=26492 fps=340 q=-0.0 size=N/A time=00:18:24.93 bitrate=N/A speed=14.2x    frame=26668 fps=340 q=-0.0 size=N/A time=00:18:32.27 bitrate=N/A speed=14.2x    frame=26845 fps=340 q=-0.0 size=N/A time=00:18:39.66 bitrate=N/A speed=14.2x    frame=27015 fps=340 q=-0.0 size=N/A time=00:18:46.75 bitrate=N/A speed=14.2x    frame=27191 fps=340 q=-0.0 size=N/A time=00:18:54.09 bitrate=N/A speed=14.2x    frame=27365 fps=340 q=-0.0 size=N/A time=00:19:01.34 bitrate=N/A speed=14.2x    frame=27542 fps=340 q=-0.0 size=N/A time=00:19:08.73 bitrate=N/A speed=14.2x    frame=27723 fps=340 q=-0.0 size=N/A time=00:19:16.28 bitrate=N/A speed=14.2x    frame=27906 fps=340 q=-0.0 size=N/A time=00:19:23.91 bitrate=N/A speed=14.2x    frame=28074 fps=340 q=-0.0 size=N/A time=00:19:30.91 bitrate=N/A speed=14.2x    frame=28260 fps=340 q=-0.0 size=N/A time=00:19:38.67 bitrate=N/A speed=14.2x    frame=28439 fps=340 q=-0.0 size=N/A time=00:19:46.14 bitrate=N/A speed=14.2x    frame=28620 fps=340 q=-0.0 size=N/A time=00:19:53.69 bitrate=N/A speed=14.2x    frame=28790 fps=340 q=-0.0 size=N/A time=00:20:00.78 bitrate=N/A speed=14.2x    frame=28962 fps=340 q=-0.0 size=N/A time=00:20:07.95 bitrate=N/A speed=14.2x    frame=29126 fps=340 q=-0.0 size=N/A time=00:20:14.79 bitrate=N/A speed=14.2x    frame=29297 fps=340 q=-0.0 size=N/A time=00:20:21.92 bitrate=N/A speed=14.2x    frame=29461 fps=340 q=-0.0 size=N/A time=00:20:28.76 bitrate=N/A speed=14.2x    frame=29634 fps=340 q=-0.0 size=N/A time=00:20:35.98 bitrate=N/A speed=14.2x    frame=29800 fps=340 q=-0.0 size=N/A time=00:20:42.90 bitrate=N/A speed=14.2x    frame=29965 fps=339 q=-0.0 size=N/A time=00:20:49.79 bitrate=N/A speed=14.2x    frame=30124 fps=339 q=-0.0 size=N/A time=00:20:56.42 bitrate=N/A speed=14.2x    frame=30304 fps=339 q=-0.0 size=N/A time=00:21:03.92 bitrate=N/A speed=14.2x    frame=30483 fps=339 q=-0.0 size=N/A time=00:21:11.39 bitrate=N/A speed=14.2x    frame=30658 fps=339 q=-0.0 size=N/A time=00:21:18.69 bitrate=N/A speed=14.2x    frame=30842 fps=339 q=-0.0 size=N/A time=00:21:26.36 bitrate=N/A speed=14.2x    frame=31020 fps=340 q=-0.0 size=N/A time=00:21:33.79 bitrate=N/A speed=14.2x    frame=31197 fps=340 q=-0.0 size=N/A time=00:21:41.17 bitrate=N/A speed=14.2x    frame=31373 fps=340 q=-0.0 size=N/A time=00:21:48.51 bitrate=N/A speed=14.2x    frame=31552 fps=340 q=-0.0 size=N/A time=00:21:55.98 bitrate=N/A speed=14.2x    frame=31722 fps=340 q=-0.0 size=N/A time=00:22:03.07 bitrate=N/A speed=14.2x    frame=31896 fps=340 q=-0.0 size=N/A time=00:22:10.32 bitrate=N/A speed=14.2x    frame=32069 fps=340 q=-0.0 size=N/A time=00:22:17.54 bitrate=N/A speed=14.2x    frame=32242 fps=340 q=-0.0 size=N/A time=00:22:24.76 bitrate=N/A speed=14.2x    frame=32416 fps=340 q=-0.0 size=N/A time=00:22:32.01 bitrate=N/A speed=14.2x    frame=32599 fps=340 q=-0.0 size=N/A time=00:22:39.64 bitrate=N/A speed=14.2x    frame=32745 fps=339 q=-0.0 size=N/A time=00:22:45.73 bitrate=N/A speed=14.1x    frame=32895 fps=339 q=-0.0 size=N/A time=00:22:51.99 bitrate=N/A speed=14.1x    frame=33071 fps=339 q=-0.0 size=N/A time=00:22:59.33 bitrate=N/A speed=14.1x    frame=33250 fps=339 q=-0.0 size=N/A time=00:23:06.80 bitrate=N/A speed=14.1x    frame=33414 fps=339 q=-0.0 size=N/A time=00:23:13.64 bitrate=N/A speed=14.1x    frame=33563 fps=339 q=-0.0 size=N/A time=00:23:19.85 bitrate=N/A speed=14.1x    frame=33714 fps=338 q=-0.0 size=N/A time=00:23:26.15 bitrate=N/A speed=14.1x    frame=33835 fps=338 q=-0.0 size=N/A time=00:23:31.20 bitrate=N/A speed=14.1x    frame=33975 fps=338 q=-0.0 size=N/A time=00:23:37.04 bitrate=N/A speed=14.1x    frame=34133 fps=337 q=-0.0 size=N/A time=00:23:43.63 bitrate=N/A speed=14.1x    frame=34290 fps=337 q=-0.0 size=N/A time=00:23:50.17 bitrate=N/A speed=14.1x    frame=34418 fps=337 q=-0.0 size=N/A time=00:23:55.51 bitrate=N/A speed=  14x    frame=34579 fps=337 q=-0.0 size=N/A time=00:24:02.23 bitrate=N/A speed=  14x    [Parsed_ssim_16 @ 000001e6229b3e40] SSIM Y:0.994163 (22.337750) U:0.993970 (22.196706) V:0.993580 (21.924782) All:0.994033 (22.242698)
[out#0/null @ 000001e61b418a00] video:14903KiB audio:271276KiB subtitle:0KiB other streams:0KiB global headers:0KiB muxing overhead: unknown
frame=34683 fps=337 q=-0.0 Lsize=N/A time=00:24:06.57 bitrate=N/A speed=  14x    
